<svg width="33" height="32" viewBox="0 0 33 32" fill="none" xmlns="http://www.w3.org/2000/svg">
<path fill-rule="evenodd" clip-rule="evenodd" d="M16.2631 0.326477C7.44189 0.326477 0.310791 7.51015 0.310791 16.3973C0.310791 23.5013 4.87993 29.5147 11.2185 31.643C12.011 31.803 12.3013 31.2973 12.3013 30.8718C12.3013 30.4992 12.2752 29.2221 12.2752 27.8915C7.83765 28.8496 6.91357 25.9758 6.91357 25.9758C6.20042 24.1133 5.14377 23.6346 5.14377 23.6346C3.69136 22.6501 5.24957 22.6501 5.24957 22.6501C6.86067 22.7565 7.70606 24.2997 7.70606 24.2997C9.13202 26.7474 11.4298 26.0558 12.3542 25.63C12.4861 24.5923 12.909 23.8739 13.358 23.4749C9.81871 23.1023 6.09495 21.7188 6.09495 15.5457C6.09495 13.7897 6.72842 12.3529 7.73218 11.2355C7.57381 10.8365 7.01904 9.18656 7.89087 6.97823C7.89087 6.97823 9.23781 6.55244 12.2749 8.62786C13.5751 8.27608 14.9161 8.09713 16.2631 8.09562C17.6101 8.09562 18.9831 8.28207 20.251 8.62786C23.2884 6.55244 24.6354 6.97823 24.6354 6.97823C25.5072 9.18656 24.9521 10.8365 24.7937 11.2355C25.8239 12.3529 26.4313 13.7897 26.4313 15.5457C26.4313 21.7188 22.7075 23.0755 19.1418 23.4749C19.723 23.9804 20.2246 24.9381 20.2246 26.4548C20.2246 28.6099 20.1985 30.3395 20.1985 30.8715C20.1985 31.2973 20.4891 31.803 21.2812 31.6434C27.6199 29.5144 32.189 23.5013 32.189 16.3973C32.2151 7.51015 25.0579 0.326477 16.2631 0.326477Z" fill="white"/>
</svg>
