<svg width="33" height="32" viewBox="0 0 33 32" fill="none" xmlns="http://www.w3.org/2000/svg">
<mask id="mask0_50_184" style="mask-type:luminance" maskUnits="userSpaceOnUse" x="1" y="1" width="30" height="30">
<path d="M29.9166 13.3333H16.2499V19H24.1166C23.3832 22.6 20.3166 24.6667 16.2499 24.6667C11.4499 24.6667 7.58325 20.8 7.58325 16C7.58325 11.2 11.4499 7.33335 16.2499 7.33335C18.3166 7.33335 20.1832 8.06668 21.6499 9.26668L25.9166 5.00001C23.3166 2.73334 19.9832 1.33334 16.2499 1.33334C8.11658 1.33334 1.58325 7.86668 1.58325 16C1.58325 24.1334 8.11658 30.6667 16.2499 30.6667C23.5832 30.6667 30.2499 25.3334 30.2499 16C30.2499 15.1333 30.1166 14.2 29.9166 13.3333Z" fill="white"/>
</mask>
<g mask="url(#mask0_50_184)">
<path d="M0.25 24.6667V7.33337L11.5833 16L0.25 24.6667Z" fill="#FBBC05"/>
</g>
<mask id="mask1_50_184" style="mask-type:luminance" maskUnits="userSpaceOnUse" x="1" y="1" width="30" height="30">
<path d="M29.9166 13.3333H16.2499V19H24.1166C23.3832 22.6 20.3166 24.6667 16.2499 24.6667C11.4499 24.6667 7.58325 20.8 7.58325 16C7.58325 11.2 11.4499 7.33335 16.2499 7.33335C18.3166 7.33335 20.1832 8.06668 21.6499 9.26668L25.9166 5.00001C23.3166 2.73334 19.9832 1.33334 16.2499 1.33334C8.11658 1.33334 1.58325 7.86668 1.58325 16C1.58325 24.1334 8.11658 30.6667 16.2499 30.6667C23.5832 30.6667 30.2499 25.3334 30.2499 16C30.2499 15.1333 30.1166 14.2 29.9166 13.3333Z" fill="white"/>
</mask>
<g mask="url(#mask1_50_184)">
<path d="M0.25 7.33333L11.5833 16L16.25 11.9333L32.25 9.33333V0H0.25V7.33333Z" fill="#EA4335"/>
</g>
<mask id="mask2_50_184" style="mask-type:luminance" maskUnits="userSpaceOnUse" x="1" y="1" width="30" height="30">
<path d="M29.9166 13.3333H16.2499V19H24.1166C23.3832 22.6 20.3166 24.6667 16.2499 24.6667C11.4499 24.6667 7.58325 20.8 7.58325 16C7.58325 11.2 11.4499 7.33335 16.2499 7.33335C18.3166 7.33335 20.1832 8.06668 21.6499 9.26668L25.9166 5.00001C23.3166 2.73334 19.9832 1.33334 16.2499 1.33334C8.11658 1.33334 1.58325 7.86668 1.58325 16C1.58325 24.1334 8.11658 30.6667 16.2499 30.6667C23.5832 30.6667 30.2499 25.3334 30.2499 16C30.2499 15.1333 30.1166 14.2 29.9166 13.3333Z" fill="white"/>
</mask>
<g mask="url(#mask2_50_184)">
<path d="M0.25 24.6667L20.25 9.33333L25.5167 10L32.25 0V32H0.25V24.6667Z" fill="#34A853"/>
</g>
<mask id="mask3_50_184" style="mask-type:luminance" maskUnits="userSpaceOnUse" x="1" y="1" width="30" height="30">
<path d="M29.9166 13.3333H16.2499V19H24.1166C23.3832 22.6 20.3166 24.6667 16.2499 24.6667C11.4499 24.6667 7.58325 20.8 7.58325 16C7.58325 11.2 11.4499 7.33335 16.2499 7.33335C18.3166 7.33335 20.1832 8.06668 21.6499 9.26668L25.9166 5.00001C23.3166 2.73334 19.9832 1.33334 16.2499 1.33334C8.11658 1.33334 1.58325 7.86668 1.58325 16C1.58325 24.1334 8.11658 30.6667 16.2499 30.6667C23.5832 30.6667 30.2499 25.3334 30.2499 16C30.2499 15.1333 30.1166 14.2 29.9166 13.3333Z" fill="white"/>
</mask>
<g mask="url(#mask3_50_184)">
<path d="M32.2498 32L11.5832 16L8.9165 14L32.2498 7.33337V32Z" fill="#4285F4"/>
</g>
</svg>
